<?xml version="1.0" encoding="UTF-8"?>
<svg id="Layer_2" data-name="Layer 2" xmlns="http://www.w3.org/2000/svg" viewBox="0 0 808.13 324.51">

  <g id="Layer_1-2" data-name="Layer 1">
    <g>
      <g>
        <path class="cls-1" d="M173.78.3c39.12,3.46,72.97,33.37,81.88,71.3,65.12,10.79,99.05,83.48,58.77,138.39-16.93,23.08-51.92,41.19-80.99,36.32-15.38-2.58-17.83-26.72-3.47-31.89,9.09-3.27,21.3-1.32,32.23-4.72,54.38-16.92,47.63-97.84-7.3-104.43-9.61-1.15-28.17,3.25-30.96-9.97-2.52-11.95-.51-18.63-7.19-30.71-25.23-45.64-95.33-36.66-106.45,14.43-1.97,9.04.71,20.33-12.02,21.9-6.94.85-13.05-1.15-21.59.38-61.11,11.01-59.8,103.52,4.83,111.23,9.79,1.17,25.76-2.06,28.91,11.02,7.46,31-33.77,23.9-51.03,18.03C-13.41,216.81-21.29,110.81,46.9,76.52c9.91-4.99,20.7-6.86,31.6-8.34,6.53-20.96,17.9-39.04,36.05-51.75,11.2-7.84,29.62-14.82,43.26-16.14,4.26-.41,11.69-.38,15.98,0Z"/>
        <path class="cls-1" d="M182.77,162.3c0,1-2.58,2.11.98,1.48.01-.49.03-1.29.38-1.58,9.94-8.14,19.15-15.78,31.82-19.62,9.44-2.87,27.77-5.46,35.76.76,10.38,8.09,7.01,25.89-5.75,28.2-7.79,1.41-13.36-.04-22.2,2.76-53.76,17.07-56.86,100.41.97,115.6,12.59,3.31,29.3,1.46,28.02,19.99-1.33,19.18-26.62,14.5-38.8,10.71-18.83-5.86-36.47-19.14-47.67-35.17l-13.95,14.98c-14.14,12.75-39.39,25.96-58.96,23.9-11.84-1.24-18.44-13.9-12.33-24.27,5.08-8.63,18.42-7.7,27.02-9.92,58.87-15.21,53.46-104.6-4.97-117.07-11.43-2.44-26.96,1.74-29.75-14.18-5.13-29.23,42.21-20.15,56.17-10.19l21.3,15.12v-79.26c0-.37,2.79-4.82,3.45-5.53,6.49-7.02,19.32-6.94,25.06,1,.79,1.1,3.45,6.77,3.45,7.52,0,24.92.06,49.85,0,74.77Z"/>
      </g>
      <g>
        <path class="cls-1" d="M422.85,178.31c-6.75-2.49-12.44-6.46-17.09-11.92-4.64-5.46-7.44-12.44-8.4-20.96h18.52c1.63,7.47,5.1,12.83,10.41,16.08,5.31,3.25,11.41,4.88,18.31,4.88s11.87-1.39,15.79-4.16c3.92-2.78,5.89-6.89,5.89-12.35,0-4.02-1.22-7.23-3.66-9.62-2.44-2.39-5.48-4.19-9.12-5.38-3.64-1.2-8.66-2.51-15.08-3.95-7.95-1.72-14.41-3.49-19.38-5.31-4.98-1.82-9.21-4.74-12.71-8.76-3.5-4.02-5.24-9.52-5.24-16.51,0-6.6,1.63-12.28,4.88-17.01,3.25-4.74,7.73-8.33,13.42-10.77,5.69-2.44,12.18-3.66,19.46-3.66,10.91,0,20.32,2.82,28.21,8.47,7.9,5.65,12.71,13.98,14.43,24.98h-18.23c-1.44-6.03-4.36-10.5-8.76-13.42-4.4-2.92-9.72-4.38-15.94-4.38s-10.62,1.25-14.07,3.73c-3.45,2.49-5.17,5.98-5.17,10.48,0,3.54,1.12,6.37,3.38,8.47,2.25,2.11,5.1,3.71,8.54,4.81,3.45,1.1,8.13,2.32,14.07,3.66,8.42,1.82,15.22,3.71,20.39,5.67,5.17,1.96,9.59,5.12,13.28,9.48,3.68,4.36,5.53,10.32,5.53,17.88,0,10.24-3.52,18.36-10.55,24.34-7.04,5.98-16.92,8.97-29.65,8.97-7.56,0-14.72-1.25-21.46-3.73Z"/>
        <path class="cls-1" d="M500.16,180.18v-80.26h16.94v10.91c3.35-4.4,6.82-7.56,10.41-9.48,3.59-1.91,7.58-2.87,11.99-2.87,5.36,0,9.95,1.15,13.78,3.45,3.83,2.3,6.41,5.65,7.75,10.05,4.79-9,12.78-13.5,23.98-13.5,8.9,0,15.55,2.54,19.96,7.61,4.4,5.07,6.6,12.25,6.6,21.54v52.55h-16.94v-49.96c0-5.74-1.2-10.1-3.59-13.07-2.39-2.97-5.79-4.45-10.19-4.45-4.69,0-8.33,1.44-10.91,4.31-2.11,2.3-3.57,5.26-4.38,8.9-.81,3.64-1.22,8.28-1.22,13.93v40.35h-16.94v-49.96c0-5.74-1.22-10.1-3.66-13.07-2.44-2.97-5.91-4.45-10.41-4.45s-8.14,1.53-10.62,4.59c-1.92,2.11-3.33,4.93-4.24,8.47-.91,3.54-1.36,8.23-1.36,14.07v40.35h-16.94Z"/>
        <path class="cls-1" d="M633.4,175.58c-4.79-4.11-7.18-9.86-7.18-17.23s2.92-13.35,8.76-17.66c4.21-3.06,10.43-5.41,18.67-7.04l25.41-4.74c-.1-5.36-1.53-9.48-4.31-12.35-2.97-2.97-6.99-4.45-12.06-4.45-4.12,0-7.71,1.17-10.77,3.52-3.06,2.35-4.98,5.53-5.74,9.55h-16.94c1.34-8.61,5.19-15.22,11.56-19.81,6.36-4.59,13.71-6.89,22.04-6.89,4.79,0,9.26.67,13.42,2.01,4.16,1.34,7.73,3.35,10.7,6.03,3.92,3.64,6.39,7.9,7.39,12.78,1,4.88,1.51,10.67,1.51,17.37v43.5h-16.94v-11.49c-2.11,3.64-4.79,6.51-8.04,8.62-4.5,2.96-10.67,4.45-18.52,4.45s-14.17-2.06-18.95-6.17ZM667.14,165.54c4.5-2.3,7.63-5.31,9.4-9.05,1.77-3.73,2.66-8.66,2.66-14.79l-21.39,4.16c-5.55,1.15-9.48,2.78-11.77,4.88-1.92,1.92-2.87,4.31-2.87,7.18,0,3.16,1.17,5.62,3.52,7.39,2.34,1.77,5.48,2.66,9.4,2.66s7.61-.81,11.06-2.44Z"/>
        <path class="cls-1" d="M713.66,180.18v-80.26h16.94v10.05c3.16-4.21,6.63-7.18,10.41-8.9,3.78-1.72,8.26-2.58,13.42-2.58h1.87v16.51h-4.31c-6.41,0-11.34,1.72-14.79,5.17-4.4,4.12-6.6,11.2-6.6,21.25v38.77h-16.94Z"/>
        <path class="cls-1" d="M793.63,180.18c-6.22,0-10.91-1.44-14.07-4.31-3.16-2.87-4.74-7.61-4.74-14.21v-47.67h-12.06v-14.07h12.06v-29.29h16.94v29.29h16.37v14.07h-16.37v42.93c0,3.06.48,5.34,1.44,6.82.96,1.49,3.06,2.23,6.32,2.23h8.47v14.21h-14.36Z"/>
      </g>
      <g>
        <path class="cls-1" d="M422.85,315.48c-6.75-2.49-12.44-6.46-17.09-11.92-4.64-5.46-7.44-12.44-8.4-20.96h18.52c1.63,7.47,5.1,12.83,10.41,16.08,5.31,3.25,11.41,4.88,18.31,4.88s11.87-1.39,15.79-4.16c3.92-2.78,5.89-6.89,5.89-12.35,0-4.02-1.22-7.23-3.66-9.62-2.44-2.39-5.48-4.19-9.12-5.38-3.64-1.2-8.66-2.51-15.08-3.95-7.95-1.72-14.41-3.49-19.38-5.31-4.98-1.82-9.21-4.74-12.71-8.76-3.5-4.02-5.24-9.52-5.24-16.51,0-6.6,1.63-12.28,4.88-17.01,3.25-4.74,7.73-8.33,13.42-10.77,5.69-2.44,12.18-3.66,19.46-3.66,10.91,0,20.32,2.82,28.21,8.47,7.9,5.65,12.71,13.98,14.43,24.98h-18.23c-1.44-6.03-4.36-10.5-8.76-13.42-4.4-2.92-9.72-4.38-15.94-4.38s-10.62,1.25-14.07,3.73c-3.45,2.49-5.17,5.98-5.17,10.48,0,3.54,1.12,6.37,3.38,8.47,2.25,2.11,5.1,3.71,8.54,4.81,3.45,1.1,8.13,2.32,14.07,3.66,8.42,1.82,15.22,3.71,20.39,5.67,5.17,1.96,9.59,5.12,13.28,9.48,3.68,4.36,5.53,10.32,5.53,17.88,0,10.24-3.52,18.36-10.55,24.34-7.04,5.98-16.92,8.97-29.65,8.97-7.56,0-14.72-1.25-21.46-3.73Z"/>
        <path class="cls-1" d="M516.24,313.61c-6.13-3.54-10.89-8.49-14.29-14.86-3.4-6.36-5.1-13.66-5.1-21.9s1.7-15.05,5.1-21.32c3.4-6.27,8.16-11.15,14.29-14.64,6.12-3.49,13.11-5.24,20.96-5.24s14.83,1.75,20.96,5.24c6.12,3.5,10.91,8.38,14.36,14.64,3.45,6.27,5.17,13.38,5.17,21.32s-1.7,15.39-5.1,21.75c-3.4,6.37-8.16,11.34-14.29,14.93-6.13,3.59-13.16,5.38-21.11,5.38s-14.84-1.77-20.96-5.31ZM549.12,300.62c3.54-2.34,6.29-5.58,8.25-9.69,1.96-4.11,2.94-8.81,2.94-14.07,0-4.98-.98-9.5-2.94-13.57-1.96-4.07-4.71-7.25-8.25-9.55-3.54-2.3-7.52-3.45-11.92-3.45s-8.38,1.13-11.92,3.37c-3.54,2.25-6.29,5.41-8.26,9.48-1.96,4.07-2.94,8.64-2.94,13.71,0,5.36,1,10.1,3.01,14.21,2.01,4.12,4.76,7.32,8.26,9.62,3.49,2.3,7.44,3.45,11.85,3.45s8.37-1.17,11.92-3.52Z"/>
        <path class="cls-1" d="M593.7,223.8c-2.15-1.96-3.23-4.43-3.23-7.39s1.08-5.43,3.23-7.39c2.15-1.96,4.76-2.94,7.83-2.94s5.79.98,7.9,2.94c2.1,1.96,3.16,4.43,3.16,7.39s-1.05,5.43-3.16,7.39c-2.11,1.96-4.74,2.94-7.9,2.94s-5.67-.98-7.83-2.94ZM610,317.34h-16.94v-80.26h16.94v80.26Z"/>
        <path class="cls-1" d="M646.9,317.34c-6.22,0-10.91-1.44-14.07-4.31-3.16-2.87-4.74-7.61-4.74-14.21v-91.03h16.94v86.58c0,3.16.55,5.41,1.65,6.75,1.1,1.34,3.09,2.01,5.96,2.01h4.74v14.21h-10.48Z"/>
      </g>
    </g>
  </g>
</svg>