<?xml version="1.0" encoding="UTF-8"?>
<svg id="Layer_2" data-name="Layer 2" xmlns="http://www.w3.org/2000/svg" viewBox="0 0 331.81 324.51">
  <defs>
    <style>
      .cls-1 {
        fill: #fff;
      }
    </style>
  </defs>
  <g id="Layer_1-2" data-name="Layer 1">
    <g>
      <path class="cls-1" d="M173.78.3c39.12,3.46,72.97,33.37,81.88,71.3,65.12,10.79,99.05,83.48,58.77,138.39-16.93,23.08-51.92,41.19-80.99,36.32-15.38-2.58-17.83-26.72-3.47-31.89,9.09-3.27,21.3-1.32,32.23-4.72,54.38-16.92,47.63-97.84-7.3-104.43-9.61-1.15-28.17,3.25-30.96-9.97-2.52-11.95-.51-18.63-7.19-30.71-25.23-45.64-95.33-36.66-106.45,14.43-1.97,9.04.71,20.33-12.02,21.9-6.94.85-13.05-1.15-21.59.38-61.11,11.01-59.8,103.52,4.83,111.23,9.79,1.17,25.76-2.06,28.91,11.02,7.46,31-33.77,23.9-51.03,18.03C-13.41,216.81-21.29,110.81,46.9,76.52c9.91-4.99,20.7-6.86,31.6-8.34,6.53-20.96,17.9-39.04,36.05-51.75,11.2-7.84,29.62-14.82,43.26-16.14,4.26-.41,11.69-.38,15.98,0Z"/>
      <path class="cls-1" d="M182.77,162.3c0,1-2.58,2.11.98,1.48.01-.49.03-1.29.38-1.58,9.94-8.14,19.15-15.78,31.82-19.62,9.44-2.87,27.77-5.46,35.76.76,10.38,8.09,7.01,25.89-5.75,28.2-7.79,1.41-13.36-.04-22.2,2.76-53.76,17.07-56.86,100.41.97,115.6,12.59,3.31,29.3,1.46,28.02,19.99-1.33,19.18-26.62,14.5-38.8,10.71-18.83-5.86-36.47-19.14-47.67-35.17l-13.95,14.98c-14.14,12.75-39.39,25.96-58.96,23.9-11.84-1.24-18.44-13.9-12.33-24.27,5.08-8.63,18.42-7.7,27.02-9.92,58.87-15.21,53.46-104.6-4.97-117.07-11.43-2.44-26.96,1.74-29.75-14.18-5.13-29.23,42.21-20.15,56.17-10.19l21.3,15.12v-79.26c0-.37,2.79-4.82,3.45-5.53,6.49-7.02,19.32-6.94,25.06,1,.79,1.1,3.45,6.77,3.45,7.52,0,24.92.06,49.85,0,74.77Z"/>
    </g>
  </g>
</svg>